<?xml version="1.0" standalone="no"?>
<!DOCTYPE svg PUBLIC "-//W3C//DTD SVG 20010904//EN"
 "http://www.w3.org/TR/2001/REC-SVG-20010904/DTD/svg10.dtd">
<svg version="1.0" xmlns="http://www.w3.org/2000/svg"
 width="1280.000000pt" height="1280.000000pt" viewBox="0 0 1280.000000 1280.000000"
 preserveAspectRatio="xMidYMid meet">

<g transform="translate(0.000000,1280.000000) scale(0.100000,-0.100000)"
fill="#000000" stroke="none">
<path d="M7845 11296 c-27 -7 -72 -25 -100 -41 -60 -35 -1103 -1075 -1097
-1093 2 -7 9 -12 16 -12 23 0 148 -123 188 -184 29 -45 38 -69 38 -101 0 -144
-140 -235 -267 -174 -48 23 -213 182 -213 205 0 8 -8 14 -17 14 -10 -1 -1101
-1084 -2424 -2408 -2619 -2619 -2445 -2438 -2470 -2578 -13 -72 -1 -153 33
-223 16 -33 117 -141 353 -380 l332 -333 94 64 c173 119 346 183 551 207 328
38 689 -97 930 -347 195 -203 299 -431 326 -717 10 -101 -2 -263 -26 -345 -6
-19 -17 -60 -26 -91 -22 -82 -99 -234 -161 -318 -30 -41 -55 -77 -55 -80 0 -4
150 -156 333 -339 392 -390 388 -387 552 -387 179 0 -99 -261 2623 2459 1326
1326 2412 2414 2412 2419 0 4 -31 37 -70 73 -103 97 -130 143 -130 219 0 53 4
68 30 103 55 77 158 104 238 63 20 -11 75 -58 121 -106 l85 -86 532 533 c616
616 589 582 589 753 0 161 0 161 -379 543 -177 178 -328 327 -337 332 -11 6
-36 -6 -87 -41 -87 -61 -234 -134 -311 -155 -31 -9 -72 -20 -91 -26 -124 -35
-375 -34 -524 2 -334 82 -609 301 -763 605 -191 378 -161 818 81 1170 39 56
52 84 46 95 -5 8 -152 157 -327 331 -334 333 -362 355 -471 378 -64 13 -92 13
-157 -3z m-568 -1771 c41 -17 207 -176 231 -220 25 -49 20 -134 -10 -179 -42
-61 -90 -88 -158 -88 -76 0 -109 18 -203 114 -114 115 -139 184 -98 274 41 91
149 136 238 99z m664 -649 c51 -35 187 -176 202 -209 37 -78 12 -180 -59 -233
-47 -37 -133 -45 -190 -18 -49 22 -194 167 -217 216 -42 89 -4 202 84 247 35
18 56 21 101 18 31 -3 67 -12 79 -21z m593 -618 c29 -9 67 -38 135 -103 51
-49 100 -103 109 -120 9 -18 15 -54 15 -92 -1 -69 -19 -104 -80 -150 -30 -23
-45 -27 -102 -27 -58 0 -72 4 -111 31 -54 37 -147 134 -177 183 -30 51 -37 95
-22 148 16 57 73 116 125 130 53 14 61 14 108 0z m-1931 -410 c12 -19 85 -143
122 -206 13 -23 143 -243 155 -262 5 -8 42 -71 82 -140 41 -69 96 -162 124
-208 68 -114 78 -132 127 -214 23 -39 52 -88 64 -107 13 -20 26 -43 30 -51 4
-8 67 -116 141 -240 73 -124 172 -290 219 -370 47 -80 96 -162 109 -182 13
-21 24 -42 24 -47 0 -10 -49 -48 -90 -69 -14 -7 -109 -63 -213 -125 -103 -62
-202 -120 -220 -131 -51 -29 -356 -209 -542 -321 -189 -113 -321 -191 -368
-218 -18 -10 -79 -46 -135 -80 -57 -34 -127 -75 -155 -91 -29 -15 -71 -41 -95
-57 -24 -16 -45 -29 -48 -29 -2 0 -21 -10 -42 -23 -20 -13 -62 -38 -93 -55
l-57 -32 -60 102 c-64 110 -372 628 -403 678 -5 8 -62 105 -127 215 -130 220
-398 671 -412 695 -52 84 -210 360 -210 367 0 9 54 53 65 53 3 0 98 55 211
123 113 67 219 130 237 140 27 16 195 116 247 147 8 5 60 35 115 68 215 126
281 165 315 187 19 12 87 52 150 89 63 37 122 71 130 76 179 107 484 287 530
314 55 31 56 32 73 4z m2617 -248 c14 -10 63 -58 110 -106 99 -104 120 -153
98 -227 -28 -94 -142 -163 -225 -137 -71 24 -181 118 -244 209 -33 50 -33 151
1 203 26 38 67 68 110 80 38 10 122 -2 150 -22z"/>
<path d="M6137 6495 c-49 -30 -90 -55 -92 -55 -9 0 -191 -115 -197 -124 -4 -6
-1 -21 7 -33 8 -12 24 -39 36 -60 12 -21 25 -42 29 -48 4 -5 17 -27 29 -47 47
-85 60 -106 95 -160 20 -32 39 -58 43 -58 6 0 46 23 138 80 33 21 104 63 158
95 56 33 97 63 97 72 0 9 -33 70 -73 137 -40 67 -91 151 -112 189 -22 37 -46
67 -55 67 -8 0 -55 -25 -103 -55z"/>
</g>
</svg>
