<?xml version="1.0" standalone="no"?>
<!DOCTYPE svg PUBLIC "-//W3C//DTD SVG 20010904//EN"
 "http://www.w3.org/TR/2001/REC-SVG-20010904/DTD/svg10.dtd">
<svg version="1.0" xmlns="http://www.w3.org/2000/svg"
 width="1280.000000pt" height="1280.000000pt" viewBox="0 0 1280.000000 1280.000000"
 preserveAspectRatio="xMidYMid meet">

<g transform="translate(0.000000,1280.000000) scale(0.100000,-0.100000)"
fill="#000000" stroke="none">
<path d="M4615 9624 c-472 -66 -793 -156 -947 -267 -210 -150 -414 -380 -568
-642 -124 -211 -251 -478 -366 -774 -36 -91 -70 -177 -76 -191 -76 -183 -250
-725 -308 -960 -109 -440 -215 -1024 -256 -1410 -8 -80 -23 -228 -34 -330 -22
-204 -26 -454 -9 -546 26 -145 78 -264 174 -399 166 -234 390 -379 716 -465
59 -15 472 -10 509 7 14 7 69 28 123 47 149 55 319 148 389 215 10 9 36 32 58
51 22 19 62 57 88 85 26 27 65 68 88 90 57 58 175 201 264 320 41 55 77 102
81 105 3 3 52 68 108 145 56 77 110 150 121 163 10 12 58 77 106 145 48 67 94
129 103 138 9 9 26 29 38 45 126 166 174 222 222 260 61 49 207 125 286 149
163 52 210 65 248 70 23 4 65 11 92 16 130 25 276 40 450 45 254 9 394 -3 725
-61 104 -18 345 -100 400 -135 8 -6 25 -15 38 -20 36 -16 112 -70 153 -109 36
-36 206 -257 368 -480 132 -182 403 -545 411 -551 4 -3 40 -45 80 -95 167
-206 310 -345 455 -442 63 -42 222 -125 265 -138 14 -4 39 -13 55 -20 102 -45
127 -49 335 -53 219 -4 269 2 398 45 116 38 196 78 307 151 222 147 368 350
446 622 16 55 19 100 19 283 0 213 -16 407 -55 687 -8 58 -19 146 -24 197 -35
337 -194 1087 -321 1508 -72 238 -226 678 -282 805 -6 14 -17 39 -24 55 -7 17
-39 91 -70 165 -120 288 -301 621 -429 791 -75 101 -293 322 -384 391 -101 76
-290 160 -422 187 -24 5 -102 23 -174 40 -146 34 -400 68 -609 81 -269 17
-538 -18 -686 -91 -93 -45 -94 -46 -170 -119 -93 -89 -128 -148 -209 -345 -40
-95 -55 -121 -73 -126 -36 -11 -834 -10 -861 0 -18 7 -32 30 -57 93 -109 274
-212 402 -395 493 -199 99 -552 130 -910 79z m528 -510 c76 -7 158 -42 193
-80 17 -18 61 -101 99 -184 72 -161 101 -207 174 -283 54 -57 122 -94 206
-115 81 -19 894 -29 1075 -13 114 10 132 15 206 51 121 59 187 141 275 343 43
100 102 209 121 225 7 5 38 20 68 32 114 44 487 37 755 -14 435 -83 516 -114
663 -257 128 -126 247 -299 366 -536 109 -217 170 -351 240 -528 38 -93 74
-183 81 -200 7 -16 30 -77 50 -135 185 -528 258 -788 345 -1234 27 -138 51
-269 55 -291 3 -22 21 -139 40 -260 19 -121 37 -245 40 -275 3 -30 14 -134 25
-230 29 -248 39 -433 29 -513 -12 -93 -64 -190 -148 -276 -201 -206 -492 -251
-758 -119 -133 67 -305 217 -426 372 -34 44 -76 96 -93 115 -41 48 -299 394
-444 596 -30 42 -60 82 -65 88 -6 7 -63 82 -127 167 -186 250 -293 343 -533
460 -146 71 -316 131 -467 164 -62 14 -147 33 -188 42 -62 14 -153 17 -528 21
-503 5 -550 2 -797 -53 -290 -64 -505 -150 -703 -281 -113 -75 -191 -149 -281
-268 -85 -112 -82 -109 -114 -150 -21 -26 -164 -222 -215 -294 -9 -13 -22 -28
-27 -35 -6 -6 -52 -68 -104 -139 -51 -70 -98 -133 -105 -140 -6 -6 -68 -86
-136 -177 -272 -360 -493 -524 -756 -561 -217 -30 -459 86 -596 286 -72 106
-86 186 -69 405 24 312 32 391 56 555 14 94 30 208 36 255 6 47 28 180 49 295
21 116 41 230 45 255 4 25 20 101 36 170 16 68 36 157 45 197 30 148 197 683
274 883 126 324 160 411 169 427 5 10 27 56 47 103 110 253 234 482 345 641
216 309 320 362 909 469 174 32 393 41 563 24z"/>
<path d="M8029 8386 c-177 -47 -287 -209 -284 -416 1 -114 32 -181 121 -268
136 -133 302 -161 468 -78 105 52 137 83 187 182 43 85 44 88 43 183 0 80 -5
106 -27 160 -24 56 -88 150 -110 159 -4 2 -13 9 -20 15 -23 21 -101 57 -147
67 -61 13 -175 11 -231 -4z m196 -267 c49 -24 70 -63 69 -129 -1 -70 -18 -100
-70 -125 -56 -26 -126 -17 -168 24 -72 70 -64 162 18 221 45 33 95 36 151 9z"/>
<path d="M4359 8281 c-115 -6 -129 -9 -166 -33 -50 -33 -50 -32 -59 -314 l-6
-211 -222 -5 c-260 -6 -285 -12 -316 -80 -18 -39 -20 -67 -20 -322 0 -267 1
-280 22 -317 34 -61 67 -71 268 -80 96 -4 198 -8 227 -8 l52 -1 3 -235 3 -235
30 -30 c43 -42 137 -53 418 -48 335 5 325 -5 334 336 l6 212 56 1 c31 0 133 4
227 8 190 9 222 19 245 73 20 48 20 608 0 656 -24 56 -53 62 -306 62 l-222 0
-5 228 c-7 332 -4 328 -268 343 -85 4 -159 8 -165 7 -5 -1 -67 -4 -136 -7z
m293 -500 c3 -213 4 -232 24 -257 46 -62 49 -63 299 -71 l230 -8 0 -125 0
-125 -230 -5 c-329 -7 -318 4 -323 -327 l-4 -223 -129 0 -129 0 0 236 0 237
-34 32 c-19 18 -49 35 -66 39 -18 3 -126 6 -241 6 l-209 0 0 129 0 128 228 5
c335 8 322 -5 322 326 0 120 3 222 7 225 3 4 61 7 129 7 l122 0 4 -229z"/>
<path d="M7305 7713 c-30 -8 -116 -66 -153 -104 -103 -105 -140 -276 -91 -421
34 -102 134 -211 229 -250 79 -33 240 -32 322 0 187 75 291 309 228 514 -34
111 -107 194 -212 243 -48 22 -65 25 -178 24 -69 -1 -134 -4 -145 -6z m187
-255 c21 -6 52 -27 68 -45 26 -29 30 -42 30 -93 0 -52 -3 -62 -33 -93 -63 -67
-147 -67 -212 0 -30 31 -35 43 -35 84 0 63 24 112 69 138 42 24 59 25 113 9z"/>
<path d="M8644 7690 c-158 -79 -258 -272 -227 -437 16 -84 48 -147 110 -214
232 -251 648 -124 706 215 29 172 -67 361 -223 438 -38 19 -65 23 -175 26
-128 3 -131 3 -191 -28z m232 -236 c19 -9 47 -32 64 -50 78 -90 2 -232 -122
-227 -75 3 -138 69 -138 144 0 44 34 100 78 126 45 27 73 28 118 7z"/>
<path d="M8078 7059 c-64 -10 -163 -64 -219 -119 -153 -152 -155 -405 -6 -576
25 -28 66 -57 115 -81 74 -37 79 -38 187 -38 108 0 113 1 187 38 87 43 142 98
185 186 26 52 28 65 28 176 0 109 -2 125 -27 178 -78 167 -266 266 -450 236z
m166 -297 c10 -10 28 -36 38 -60 17 -38 18 -50 8 -93 -22 -92 -113 -132 -199
-86 -130 67 -101 240 44 269 28 6 86 -11 109 -30z"/>
</g>
</svg>
