<?xml version="1.0" standalone="no"?>
<!DOCTYPE svg PUBLIC "-//W3C//DTD SVG 20010904//EN"
 "http://www.w3.org/TR/2001/REC-SVG-20010904/DTD/svg10.dtd">
<svg version="1.0" xmlns="http://www.w3.org/2000/svg"
 width="1280.000000pt" height="1280.000000pt" viewBox="0 0 1280.000000 1280.000000"
 preserveAspectRatio="xMidYMid meet">

<g transform="translate(0.000000,1280.000000) scale(0.100000,-0.100000)"
fill="#000000" stroke="none">
<path d="M6125 12623 c-1062 -49 -2058 -351 -2960 -896 -612 -370 -1177 -866
-1641 -1443 -531 -661 -942 -1485 -1159 -2327 -194 -749 -246 -1572 -149
-2342 118 -944 464 -1874 988 -2660 249 -374 502 -681 822 -996 197 -193 278
-265 464 -415 901 -725 1974 -1181 3125 -1328 477 -62 1092 -62 1563 -1 496
65 937 174 1397 345 1861 694 3275 2227 3819 4141 244 859 298 1795 155 2694
-94 589 -305 1247 -571 1780 -405 810 -990 1531 -1703 2102 -745 595 -1647
1018 -2610 1222 -478 101 -1049 147 -1540 124z m585 -583 c1086 -63 2079 -412
2980 -1049 422 -298 871 -734 1205 -1171 106 -138 285 -406 385 -576 104 -178
269 -513 353 -719 459 -1125 541 -2389 231 -3565 -252 -953 -757 -1837 -1447
-2533 -173 -174 -226 -223 -390 -361 -787 -658 -1731 -1088 -2742 -1250 -1106
-176 -2238 -19 -3264 454 -135 62 -179 85 -376 193 -742 407 -1434 1040 -1917
1752 -299 442 -525 897 -691 1395 -254 757 -345 1578 -261 2370 210 2007 1471
3747 3314 4575 815 366 1731 536 2620 485z"/>
<path d="M4615 9624 c-472 -66 -793 -156 -947 -267 -209 -149 -414 -382 -568
-642 -150 -254 -271 -520 -455 -1000 -207 -540 -387 -1221 -476 -1800 -41
-270 -68 -462 -73 -525 -3 -36 -15 -144 -27 -240 -26 -220 -36 -540 -20 -636
26 -152 77 -271 176 -409 166 -234 390 -379 716 -465 59 -15 472 -10 509 7 14
7 69 28 123 47 217 79 375 183 535 350 26 27 65 68 86 90 59 61 181 208 266
321 41 55 78 102 81 105 4 3 52 68 108 145 56 77 110 150 121 163 10 12 58 77
106 145 48 67 94 129 103 138 9 9 26 29 38 45 126 166 174 222 222 260 61 49
207 125 286 149 163 52 210 65 248 70 23 4 65 11 92 16 217 42 552 59 777 40
250 -21 503 -72 658 -132 30 -11 69 -26 85 -33 17 -6 43 -19 58 -29 14 -9 30
-17 35 -17 14 0 124 -79 158 -114 23 -24 177 -221 226 -291 4 -5 20 -26 36
-45 15 -19 57 -75 92 -125 93 -130 412 -559 420 -565 4 -3 40 -45 80 -95 167
-206 304 -338 455 -442 62 -42 221 -125 265 -138 14 -4 39 -13 55 -20 102 -45
127 -49 335 -53 129 -2 227 1 263 8 252 49 529 211 678 396 99 123 162 247
210 414 16 55 19 99 19 283 0 213 -16 407 -55 687 -8 58 -19 146 -24 197 -35
337 -194 1087 -321 1508 -72 238 -226 678 -282 805 -6 14 -17 39 -24 55 -7 17
-39 91 -70 165 -121 289 -300 620 -430 793 -74 99 -297 325 -387 393 -96 72
-289 157 -418 183 -24 5 -102 23 -174 40 -71 17 -168 35 -215 40 -47 6 -121
15 -165 21 -367 49 -727 21 -914 -70 -83 -41 -96 -49 -169 -115 -45 -41 -114
-133 -145 -195 -9 -19 -39 -89 -66 -155 -39 -96 -53 -121 -72 -126 -32 -9
-827 -9 -859 0 -19 5 -31 23 -52 71 -80 193 -108 249 -163 319 -138 180 -320
263 -640 290 -180 16 -321 12 -510 -15z m523 -510 c79 -7 162 -40 198 -80 17
-19 60 -98 95 -177 69 -152 108 -217 173 -285 52 -55 145 -107 216 -122 79
-17 909 -25 1070 -11 114 10 132 15 206 51 121 59 187 141 275 343 43 100 102
209 121 225 7 6 40 21 73 34 57 22 71 23 300 22 199 -1 262 -5 370 -23 296
-51 545 -116 595 -156 8 -7 27 -19 42 -27 43 -21 174 -154 239 -241 148 -198
325 -540 473 -912 38 -93 74 -183 81 -200 7 -16 30 -77 50 -135 184 -522 258
-787 345 -1234 27 -138 52 -271 55 -296 3 -25 19 -128 36 -230 34 -219 38
-241 44 -300 2 -25 14 -126 25 -225 45 -395 44 -539 -6 -637 -81 -161 -212
-270 -389 -324 -159 -48 -320 -32 -482 48 -133 67 -305 217 -426 372 -34 44
-76 96 -93 115 -41 48 -299 394 -444 596 -30 42 -60 82 -65 88 -6 7 -63 82
-127 167 -186 250 -293 343 -533 460 -146 71 -316 131 -467 164 -62 14 -147
33 -188 42 -62 13 -153 17 -520 21 -499 5 -565 0 -805 -53 -138 -31 -372 -102
-431 -132 -217 -107 -320 -172 -415 -260 -56 -51 -245 -291 -399 -507 -36 -49
-67 -92 -71 -95 -3 -3 -56 -75 -119 -160 -62 -85 -116 -157 -119 -160 -4 -3
-63 -79 -131 -170 -130 -173 -302 -353 -396 -415 -81 -54 -203 -112 -274 -131
-122 -31 -296 -17 -409 35 -133 61 -278 208 -324 331 -33 88 -33 143 3 575 6
66 21 197 35 290 14 94 30 208 36 255 6 47 28 180 49 295 21 116 41 230 45
255 4 25 18 92 32 150 13 58 33 148 44 200 39 177 191 667 280 900 15 41 47
125 70 185 23 61 45 114 50 120 5 5 9 15 9 22 0 8 13 42 29 76 16 34 43 95 60
135 105 241 231 473 342 633 215 308 320 362 909 469 36 7 130 18 210 25 133
12 200 12 348 -1z"/>
<path d="M8029 8386 c-177 -47 -287 -209 -284 -416 1 -114 32 -181 121 -268
136 -133 302 -161 468 -78 105 52 137 83 187 182 43 85 44 88 43 183 0 80 -5
106 -27 160 -24 56 -88 150 -110 159 -4 2 -13 9 -20 15 -23 21 -101 57 -147
67 -61 13 -175 11 -231 -4z m196 -267 c49 -24 70 -63 69 -129 0 -35 -7 -68
-17 -83 -24 -38 -82 -60 -139 -55 -60 6 -109 48 -127 109 -11 35 -10 45 9 84
29 59 83 96 136 91 22 -2 53 -9 69 -17z"/>
<path d="M4359 8281 c-115 -6 -129 -9 -166 -33 -50 -33 -50 -32 -59 -314 l-6
-211 -222 -5 c-260 -6 -285 -12 -316 -80 -18 -39 -20 -67 -20 -322 0 -267 1
-280 22 -317 34 -61 67 -71 268 -80 96 -4 198 -8 227 -8 l52 -1 3 -235 3 -235
30 -30 c43 -42 137 -53 418 -48 335 5 325 -5 334 336 l6 212 56 1 c31 0 133 4
227 8 190 9 222 19 245 73 20 48 20 608 0 656 -24 56 -53 62 -306 62 l-223 0
-4 228 c-7 332 -3 328 -268 343 -85 4 -159 8 -165 7 -5 -1 -67 -4 -136 -7z
m293 -500 c3 -213 4 -232 24 -257 46 -62 49 -63 299 -71 l230 -8 0 -125 0
-125 -230 -5 c-329 -7 -318 4 -323 -327 l-4 -223 -129 0 -129 0 0 236 0 237
-34 32 c-19 18 -49 35 -66 39 -18 3 -126 6 -241 6 l-209 0 0 129 0 128 228 5
c179 5 235 9 259 21 58 30 58 31 61 281 1 127 5 237 7 244 3 9 38 12 129 12
l124 0 4 -229z"/>
<path d="M8785 7720 c-86 -5 -107 -9 -153 -34 -68 -38 -147 -122 -178 -191
-75 -163 -49 -323 73 -456 232 -251 648 -124 706 215 22 130 -24 271 -121 363
-91 87 -167 111 -327 103z m91 -266 c19 -9 47 -32 64 -50 78 -90 2 -232 -122
-227 -75 3 -138 69 -138 144 0 44 34 100 78 126 45 27 73 28 118 7z"/>
<path d="M7305 7713 c-30 -8 -116 -66 -153 -104 -104 -105 -140 -277 -91 -421
36 -104 134 -211 229 -250 79 -33 240 -32 322 0 187 75 291 309 228 514 -34
111 -107 194 -212 243 -48 22 -65 25 -178 24 -69 -1 -134 -4 -145 -6z m187
-255 c21 -6 52 -27 68 -45 26 -29 30 -42 30 -93 0 -52 -3 -62 -33 -93 -62 -66
-147 -67 -212 -1 -31 30 -35 41 -35 84 0 64 24 112 69 139 42 24 59 25 113 9z"/>
<path d="M8078 7060 c-26 -5 -75 -23 -110 -42 -207 -109 -285 -348 -181 -556
44 -86 95 -137 181 -179 74 -37 79 -38 187 -38 108 0 113 1 187 38 87 43 142
98 185 186 26 52 28 65 28 176 0 109 -2 125 -27 178 -78 166 -270 267 -450
237z m166 -298 c10 -10 28 -36 38 -60 17 -38 18 -50 8 -93 -22 -92 -113 -132
-199 -86 -130 67 -101 240 44 269 28 6 86 -11 109 -30z"/>
</g>
</svg>
