<?xml version="1.0" standalone="no"?>
<!DOCTYPE svg PUBLIC "-//W3C//DTD SVG 20010904//EN"
 "http://www.w3.org/TR/2001/REC-SVG-20010904/DTD/svg10.dtd">
<svg version="1.0" xmlns="http://www.w3.org/2000/svg"
 width="1500.000000pt" height="500.000000pt" viewBox="0 0 1500.000000 500.000000"
 preserveAspectRatio="xMidYMid meet">
<metadata>
Created by potrace 1.16, written by Peter Selinger 2001-2019
</metadata>
<g transform="translate(0.000000,500.000000) scale(0.100000,-0.100000)"
fill="orange" stroke="none">
<path d="M0 2500 l0 -2500 7325 0 7326 0 -27 47 c-15 27 -42 73 -59 103 -18
30 -77 132 -130 225 -54 94 -123 213 -153 265 -30 52 -98 169 -150 260 -52 91
-129 224 -170 295 -41 72 -117 202 -167 290 -51 88 -125 216 -165 285 -67 117
-214 371 -438 760 -52 91 -143 248 -202 350 -59 102 -160 277 -225 390 -154
267 -204 354 -343 595 -543 939 -622 1080 -622 1108 l0 27 -5900 0 -5900 0 0
-2500z m4836 1040 c186 -39 347 -119 473 -236 182 -169 274 -355 302 -613 60
-550 -219 -970 -738 -1113 -65 -18 -113 -22 -288 -26 -197 -3 -218 -2 -321 21
-205 46 -356 128 -494 267 -135 134 -217 286 -257 471 -13 64 -17 128 -17 264
1 161 3 190 26 276 95 354 373 610 748 690 125 26 440 26 566 -1z m4119 1
c395 -84 679 -358 761 -736 27 -125 25 -402 -4 -519 -80 -323 -311 -572 -631
-681 -127 -43 -218 -55 -415 -55 -206 0 -328 21 -472 81 -221 92 -422 292
-509 508 -56 137 -69 220 -69 431 0 167 4 206 22 271 101 367 370 618 752 699
124 27 440 27 565 1z m-6600 -521 l400 -529 3 529 2 530 255 0 255 0 0 -990 0
-990 -248 0 -249 0 -394 522 -394 523 -3 -523 -2 -522 -260 0 -260 0 0 990 0
990 248 0 247 0 400 -530z m4043 -97 c124 -343 229 -623 232 -623 4 0 89 226
189 503 101 276 204 557 228 625 l45 122 269 0 269 0 0 -62 c-1 -59 -25 -123
-369 -988 l-368 -925 -274 -3 -274 -2 -368 934 c-327 833 -367 941 -367 991
l0 55 281 -2 282 -3 225 -622z"/>
<path d="M4465 3065 c-150 -40 -274 -134 -353 -265 -31 -52 -72 -183 -72 -229
0 -238 211 -484 458 -533 175 -34 404 96 504 287 40 77 68 172 68 232 0 105
-63 253 -146 343 -71 76 -143 123 -237 155 -84 28 -146 31 -222 10z"/>
<path d="M8583 3065 c-152 -41 -277 -137 -352 -269 -47 -82 -74 -187 -68 -260
17 -215 191 -422 408 -486 80 -24 122 -25 203 -4 199 51 370 237 407 443 42
235 -152 509 -406 576 -72 18 -123 18 -192 0z"/>
</g>
</svg>
